<svg xmlns="http://www.w3.org/2000/svg" viewBox="0 0 433.12 100.00" width="433" height="100" role="img" aria-label="Picasso Intelligence">
  <title>Picasso Intelligence</title>
  <path fill="#548490" d="M0.0 0.0H20.190346702923183Q36.57375934738273 0.0 43.8137321549966 3.02515295717199Q51.05370496261047 6.05030591434398 55.23453433038749 12.8144119646499Q59.41536369816451 19.57851801495582 59.41536369816451 29.02787219578518Q59.41536369816451 39.496940856560165 53.942895989123045 46.43099932019035Q48.47042828008158 53.36505778382053 39.08905506458191 56.084296397008835Q33.5825968728756 57.64785859959211 19.03467029231815 57.64785859959211V100.0H0.0ZM19.03467029231815 39.08905506458191H25.084976206662137Q32.22297756628144 39.08905506458191 35.010197144799456 38.0693405846363Q37.79741672331747 37.04962610469069 39.3949694085656 34.704282800815776Q40.99252209381373 32.35893949694086 40.99252209381373 29.02787219578518Q40.99252209381373 23.249490142760024 36.50577838205302 20.598232494901424Q33.24269204622706 18.62678450033991 24.40516655336506 18.62678450033991H19.03467029231815Z"/>
  <g fill="#111111"><path d="M77.8153636981645 10.5H84.2787219578518V44.7H77.8153636981645Z M127.62857054570173 16.521617946974846 123.07167047772077 20.86927260367097Q118.42177244916877 15.963630183548606 112.60939991347875 15.963630183548606Q107.70375749335639 15.963630183548606 104.34420616772756 19.31155676410605Q100.98465484209873 22.659483344663492 100.98465484209873 27.56512576478586Q100.98465484209873 30.982800815771583 102.47262221123538 33.633242692046224Q103.96058958037203 36.28368456832087 106.68077992707495 37.79490142760027Q109.40097027377787 39.30611828687967 112.72564736419255 39.30611828687967Q115.56208516160928 39.30611828687967 117.91028366602805 38.24826648538409Q120.25848217044681 37.19041468388851 123.07167047772077 34.40047586675731L127.48907360484517 39.00387491502379Q123.69940671157529 42.70054384772264 120.32823064087509 44.13038749150238Q116.95705457017488 45.56023113528212 112.63264940362151 45.56023113528212Q104.65807428465483 45.56023113528212 99.57806068846176 40.503467029231814Q94.49804709226869 35.44670292318151 94.49804709226869 27.5418762746431Q94.49804709226869 22.426988443235892 96.8113713614733 18.451325628823927Q99.12469563067793 14.475662814411962 103.43747605215992 12.05771583956492Q107.75025647364191 9.63976886471788 112.72564736419255 9.63976886471788Q116.95705457017488 9.63976886471788 120.87459365922994 11.4299796057104Q124.79213274828501 13.220190346702921 127.62857054570173 16.521617946974846Z M148.3334157345034 10.5H154.93627093504728L168.09548235584944 44.7H161.32988072430626L158.65618935788888 37.65540448674371H144.70649527223284L141.91655645510164 44.7H135.1509548235585ZM151.68134231506087 19.56730115567641 147.12444224707988 31.308293677770223H156.21499289289906Z M195.65892713676533 15.149898028552006 190.846282677214 19.40455472467709Q188.31208825165317 15.870632222977566 185.68489586552127 15.870632222977566Q184.40617390766948 15.870632222977566 183.59244175267287 16.556492182188986Q182.77870959767628 17.242352141400406 182.77870959767628 18.102583276682527Q182.77870959767628 18.96281441196465 183.35994685124527 19.73004758667573Q184.1504295160991 20.75302515295717 188.12609233051109 24.124201223657376Q191.8460107533527 27.23963290278722 192.63649341820653 28.05336505778382Q194.61270008034114 30.052821210061182 195.4380569804091 31.877906186267843Q196.2634138804771 33.702991162474504 196.2634138804771 35.86519374575119Q196.2634138804771 40.073351461590754 193.35722761263207 42.81679129843644Q190.4510413447871 45.56023113528212 185.7778938260923 45.56023113528212Q182.127723873679 45.56023113528212 179.41915827204747 43.7700203942896Q176.7105926704159 41.97980965329708 174.78088498856684 38.14364377974167L180.24451517211543 34.84221617946975Q182.708961127248 39.37586675730795 185.91739076694887 39.37586675730795Q187.5913540572276 39.37586675730795 188.73057907422285 38.39938817131203Q189.8698040912181 37.42290958531611 189.8698040912181 36.14418762746431Q189.8698040912181 34.98171312032631 189.00957295593597 33.819238613188304Q188.14934182065383 32.656764106050304 185.21990606266607 30.262066621346023Q179.64002842840367 25.705166553365057 178.01256411841047 23.229095853161112Q176.38509980841727 20.75302515295717 176.38509980841727 18.288579197824607Q176.38509980841727 14.731407205982322 179.0936654100488 12.1855880353501Q181.80223101168036 9.63976886471788 185.7778938260923 9.63976886471788Q188.3353377417959 9.63976886471788 190.64866201100054 10.82549286199864Q192.96198628020517 12.0112168592794 195.65892713676533 15.149898028552006Z M225.01258265867375 15.149898028552006 220.1999381991224 19.40455472467709Q217.6657437735616 15.870632222977566 215.0385513874297 15.870632222977566Q213.7598294295779 15.870632222977566 212.9460972745813 16.556492182188986Q212.1323651195847 17.242352141400406 212.1323651195847 18.102583276682527Q212.1323651195847 18.96281441196465 212.7136023731537 19.73004758667573Q213.50408503800753 20.75302515295717 217.4797478524195 24.124201223657376Q221.1996662752611 27.23963290278722 221.99014894011495 28.05336505778382Q223.96635560224956 30.052821210061182 224.79171250231752 31.877906186267843Q225.6170694023855 33.702991162474504 225.6170694023855 35.86519374575119Q225.6170694023855 40.073351461590754 222.7108831345405 42.81679129843644Q219.8046968666955 45.56023113528212 215.13154934800073 45.56023113528212Q211.48137939558742 45.56023113528212 208.7728137939559 43.7700203942896Q206.06424819232433 41.97980965329708 204.13454051047526 38.14364377974167L209.59817069402385 34.84221617946975Q212.0626166491564 39.37586675730795 215.2710462888573 39.37586675730795Q216.945009579136 39.37586675730795 218.08423459613127 38.39938817131203Q219.22345961312652 37.42290958531611 219.22345961312652 36.14418762746431Q219.22345961312652 34.98171312032631 218.3632284778444 33.819238613188304Q217.50299734256225 32.656764106050304 214.5735615845745 30.262066621346023Q208.9936839503121 25.705166553365057 207.3662196403189 23.229095853161112Q205.7387553303257 20.75302515295717 205.7387553303257 18.288579197824607Q205.7387553303257 14.731407205982322 208.44732093195722 12.1855880353501Q211.15588653358878 9.63976886471788 215.13154934800073 9.63976886471788Q217.68899326370433 9.63976886471788 220.00231753290896 10.82549286199864Q222.3156418021136 12.0112168592794 225.01258265867375 15.149898028552006Z M252.5992769297324 9.63976886471788Q259.85311785427353 9.63976886471788 265.0726283913232 14.894153636981645Q270.2921389283728 20.14853840924541 270.2921389283728 27.70462270564242Q270.2921389283728 35.19095853161115 265.1423768617515 40.37559483344664Q259.9926147951301 45.56023113528212 252.64577591001793 45.56023113528212Q244.95019467276435 45.56023113528212 239.85855633149993 40.23609789259008Q234.76691799023547 34.91196464989803 234.76691799023547 27.58837525492862Q234.76691799023547 22.682732834806252 237.138365984797 18.567573079537727Q239.5098139793585 14.452413324269202 243.65984796984117 12.04609109449354Q247.80988196032385 9.63976886471788 252.5992769297324 9.63976886471788ZM252.52952845930415 16.010129163834126Q247.78663247018108 16.010129163834126 244.55495334033742 19.31155676410605Q241.3232742104938 22.612984364377972 241.3232742104938 27.70462270564242Q241.3232742104938 33.377498300475864 245.3919349854768 36.67892590074779Q248.55386564489217 39.25961930659415 252.64577591001793 39.25961930659415Q257.27242444842716 39.25961930659415 260.52735306841356 35.911692726036705Q263.78228168839996 32.56376614547926 263.78228168839996 27.6581237253569Q263.78228168839996 22.775730795377292 260.5041035782708 19.39292997960571Q257.22592546814167 16.010129163834126 252.52952845930415 16.010129163834126Z"/><path d="M77.8153636981645 55.2H84.2787219578518V89.4H77.8153636981645Z M96.21850936283293 55.2H102.44937272109263L117.11980100117421 77.7055064581917V55.2H123.62965824114701V89.4H117.37554539274456L102.72836660280575 66.96424201223658V89.4H96.21850936283293Z M132.6400098881404 55.2H151.5418453742043V61.616859279401766H145.3109820159446V89.4H138.70812681540076V61.616859279401766H132.6400098881404Z M160.62194549162598 55.2H179.29128607626228V61.570360299116246H167.08530375131326V67.75472467709042H179.29128607626228V74.00883752549286H167.08530375131326V83.006390210741H179.29128607626228V89.4H160.62194549162598Z M189.95235152339163 55.2H196.46220876336443V83.19238613188308H205.94800074161054V89.4H189.95235152339163Z M215.49309066188738 55.2H222.00294790186018V83.19238613188308H231.4887398801063V89.4H215.49309066188738Z M240.56883999752796 55.2H247.03219825721524V89.4H240.56883999752796Z M290.5215437859217 60.779877634262405 285.941394227798 65.31352821210061Q281.5937395711019 60.710129163834125 275.80461652555465 60.710129163834125Q270.75947716457574 60.710129163834125 267.35342685866135 64.05805574439157Q263.947376552747 67.40598232494901 263.947376552747 72.19537729435758Q263.947376552747 77.14751869476547 267.4812990544466 80.58844323589395Q271.0152215561461 84.02936777702244 276.19985785798156 84.02936777702244Q279.5710339286818 84.02936777702244 281.8843581978864 82.61114887831408Q284.197682467091 81.19292997960571 285.6159013657994 78.1704962610469H275.7116185649836V72.05588035350102H292.916241270626L292.96274025091157 73.49734874235214Q292.96274025091157 77.98450033990483 290.63779123663556 82.00666213460232Q288.31284222235956 86.0288239292998 284.6161732896607 88.14452753229097Q280.91950435696185 90.26023113528213 275.94411346641124 90.26023113528213Q270.61998022371915 90.26023113528213 266.44669674309375 87.94690686607751Q262.2734132624683 85.63358259687288 259.84384154254985 81.35567641060504Q257.41426982263147 77.07777022433719 257.41426982263147 72.1256288239293Q257.41426982263147 65.33677770224338 261.90142142018414 60.314887831407205Q267.2255546628762 54.33976886471788 275.75811754526916 54.33976886471788Q280.2220196526791 54.33976886471788 284.10468450651996 55.99048266485384Q287.38286261664916 57.385452073419444 290.5215437859217 60.779877634262405Z M303.5540572276126 55.2H322.2233978122489V61.570360299116246H310.0174154872999V67.75472467709042H322.2233978122489V74.00883752549286H310.0174154872999V83.006390210741H322.2233978122489V89.4H303.5540572276126Z M332.907712749521 55.2H339.1385761077807L353.8090043878623 77.7055064581917V55.2H360.3188616278351V89.4H354.06474877943265L339.4175699894938 66.96424201223658V89.4H332.907712749521Z M404.13370001854025 61.221617946974845 399.57679995055935 65.56927260367098Q394.9269019220073 60.663630183548605 389.1145293863173 60.663630183548605Q384.20888696619494 60.663630183548605 380.8493356405661 64.01155676410605Q377.4897843149373 67.35948334466349 377.4897843149373 72.26512576478586Q377.4897843149373 75.68280081577159 378.97775168407395 78.33324269204624Q380.4657190532106 80.98368456832088 383.1859093999135 82.49490142760028Q385.9060997466164 84.00611828687968 389.2307768370311 84.00611828687968Q392.06721463444785 84.00611828687968 394.4154131388666 82.9482664853841Q396.76361164328534 81.89041468388851 399.57679995055935 79.10047586675731L403.9942030776837 83.7038749150238Q400.2045361844138 87.40054384772264 396.83336011371364 88.83038749150239Q393.46218404301345 90.26023113528213 389.13777887646006 90.26023113528213Q381.16320375749336 90.26023113528213 376.0831901613003 85.20346702923182Q371.00317656510725 80.14670292318151 371.00317656510725 72.2418762746431Q371.00317656510725 67.12698844323589 373.3165008343119 63.151325628823926Q375.6298251035165 59.175662814411965 379.9426055249985 56.75771583956492Q384.2553859464805 54.33976886471788 389.2307768370311 54.33976886471788Q393.46218404301345 54.33976886471788 397.37972313206853 56.1299796057104Q401.29726222112356 57.920190346702924 404.13370001854025 61.221617946974845Z M414.4460231135282 55.2H433.1153636981645V61.570360299116246H420.9093813732155V67.75472467709042H433.1153636981645V74.00883752549286H420.9093813732155V83.006390210741H433.1153636981645V89.4H414.4460231135282Z"/></g>
</svg>
